<svg xmlns="http://www.w3.org/2000/svg" version="1.1" xmlns:xlink="http://www.w3.org/1999/xlink" xmlns:svgjs="http://svgjs.dev/svgjs" width="1000" height="625" viewBox="0 0 1000 625"><g transform="matrix(1,0,0,1,0,0)"><svg viewBox="0 0 512 320" data-background-color="#ffffff" preserveAspectRatio="xMidYMid meet" height="625" width="1000" xmlns="http://www.w3.org/2000/svg" xmlns:xlink="http://www.w3.org/1999/xlink"><g id="tight-bounds" transform="matrix(1,0,0,1,0,0)"><svg viewBox="0 0 512 320" height="320" width="512"><g><svg></svg></g><g><svg viewBox="0 0 512 320" height="320" width="512"><g><path d="M96 160c0-88.366 71.634-160 160-160 88.366 0 160 71.634 160 160 0 88.366-71.634 160-160 160-88.366 0-160-71.634-160-160z" fill="#398378" fill-rule="nonzero" stroke="none" stroke-width="1" stroke-linecap="butt" stroke-linejoin="miter" stroke-miterlimit="10" stroke-dasharray="" stroke-dashoffset="0" font-family="none" font-weight="none" font-size="none" text-anchor="none" style="mix-blend-mode: normal" data-fill-palette-color="tertiary"></path></g><g transform="matrix(1,0,0,1,185.45454545454544,80)"><svg viewBox="0 0 141.0909090909091 160" height="160" width="141.0909090909091"><g><svg viewBox="0 0 141.0909090909091 160" height="160" width="141.0909090909091"><g><svg viewBox="0 0 141.0909090909091 160" height="160" width="141.0909090909091"><g id="textblocktransform"><svg viewBox="0 0 141.0909090909091 160" height="160" width="141.0909090909091" id="textblock"><g><svg viewBox="0 0 141.0909090909091 160" height="160" width="141.0909090909091"><g transform="matrix(1,0,0,1,0,0)"><svg width="141.0909090909091" viewBox="-0.4 -33 29.099999999999998 33" height="160" data-palette-color="#785abe"><path d="M18.9-33L13.25-8.55 28.7-8.55 26.7 0-0.4 0 7.25-33 18.9-33Z" opacity="1" transform="matrix(1,0,0,1,0,0)" fill="#785abe" class="wordmark-text-0" data-fill-palette-color="quaternary" id="text-0"></path></svg></g></svg></g></svg></g></svg></g></svg></g></svg></g></svg></g><defs></defs></svg><rect width="512" height="320" fill="none" stroke="none" visibility="hidden"></rect></g></svg></g></svg>